/* XPM */
static char *cf2d6b8e83354f59bd9ef8a5656410be5kZH2hAvMW1gRiH3[] = {
/* columns rows colors chars-per-pixel */
"64 72 13 1 ",
"  c None",
". c #21263F",
"X c #3A5339",
"o c #6B7B39",
"O c #3E3D4C",
"+ c #673347",
"@ c #6C4F40",
"# c #5A5A63",
"$ c #C0461F",
"% c #847F7F",
"& c #A5845A",
"* c #84AD42",
"= c #BCB19F",
/* pixels */
"oooooooo..#OO#..####%%%%###%====%%%%===%ooo===ooooo%%%oooooooooo",
"oooooooo..#OOO..####%%%%###%====%%%%======o===ooooo%%%oooooooooo",
"oooooooo..O.....####%%%%###%====%%%%======o===oo==ooooooo%%ooooo",
"oooooooo...OOO..###%====%%%%====%%%%====oooooooo==oo===oo%%o===o",
"oooooooo...OOO..%%%=%%%%====%%%%====%%%%====o%%ooooo===ooooo===o",
"oooooooo........%%%=%%%%====%%%%====%%%%====o%%o===o===ooooo===o",
"oooooooo..OO.O..%%%=%%%%====%%%%===%%%%%====oooo===ooooo=ooooooo",
"ooooooooO.OO...O%%%=%%%%====%%%%==%=%%%%oooooooo===ooooooooooooo",
"oo#OOooo%%#%%O#O%%#OO===%%%%====%%##====ooO...Xooooooooooooooooo",
"ooOOOooo==##%O%%%%OOO===%%%%====%###====o####..Xooooooooooooo*oo",
"ooOOoo##==OOOO%%%%OO==##%%%%====####====O####.#OXoooooooo*ooo*oo",
"oooooo##%O##OO%%%%%%==##%%%%====####====.####O#OXXooooooo*oooooo",
"o==ooooo#O##O==#=##=%%%%====%%%%====%%%%.###O.#.XXXooooooooo*o*o",
"o==ooOOo%%OOO==#=##=%OO%====%%%%====%%%%..OO..O.XXXXoooooo*o*o*o",
"ooooOOOo%%O#####====OOO%====%%%%====%%%%X.OOX..XXXXooooooo*ooo*o",
"ooooOO#oOOO#%%%#====OO#%====%%%%====%%%%oXo.o.ooXXXXoooooooooooo",
"oXooooooOO....OO%%%%====..............O#%O....O%XXXXoooooooooooo",
"oXoXoooXO.OO...O#%%%====##############.OO.####.OXXXXXooooooooooo",
"oooXoXoX........##%%====OOOOOOOOOOOOO#....#OO#..XXXXoooooo*ooooo",
"oooooXoo...OO...###%====OOOOOOOOOOOOO#....#OO#..XXXXXooo*o*oo*oo",
"ooXooooo..OOOO..%%%=%%%%###OO#########....#OO#..XXXXoooo*oooo*oo",
"XoXoooXo..#OO#..%%%=%%%%..#OO#............#OO#..XXXXooooooo*o*oo",
"XoooXoXo..#OO#..%%%=%%%%..#OO#............#OO#..XXXXooooo*o*oooo",
"ooooXooo..#OO#..%%%=%%%%..#OO#.........O..#OO#..XXXXooooo*oooooo",
"ooXooooo..#OO#..###%====..#OO#........O#..#OO#..XXXXoooooooooooo",
"ooXoooXo..#OO#..###%====..#OO#####O....O..#OO#..XXXXXoooooo*oooo",
"ooooooXo..#OO#..###%====..#OOOOOOOOO.OO...#OO#..XXXXoooooooo*oo*",
"oooooooo..#OO#..###%====..#OOOOOOOOO.OO...#OO#..XXXooooo*ooo*o*o",
"ooooXooo..#OO#..%%%=%%%%..#OO######O......####..XXXXooooo*oo*o*o",
"ooooXooo..#OO#..%%%=%%%%..#OO#........O.........XXXoooooo**o*o*o",
"oooooooo..#OO#..%%%=%%%%..#OO#..................XXXXoooooo*X*X*X",
"oooooooo..#OO#..%%%=%%%%..#OO#.........OO......OXXXXXooooo*ooXoo",
"oooooooo..#OO#............#OO#........XoO......OXXXooooo........",
"oooooooo..#OO##############OO#########.X..####..XXXXoooo........",
"oooooooo..#OOOOOOOOOOOOOOOOOOOOOOOOOO#....#OO#..XXXXoooo........",
"ooooo*oo..#OOOOOOOOOOOOOOOOOOOOOOOOOO#....#OO#..XXXooooo........",
"oo*oo*oo..#########################OO#....####..oooooooo........",
"oo*ooooo..........................#OO#..........oooooooo........",
"oooooooo.........$$$..............#OO#..........oooooooo........",
"ooooooooX.......+...$$$...........#OO#..O......Ooooooooo........",
".......................$$+........#OO#..........................",
"###########.####.##.......+++.....#OO#..#####.#.......+...##....",
"OOOOOOOOOO#.#OOO.##.##.......++...####..OOOO#.#.....$+....##....",
"OOOOOOOOOO#.#OOO.##.##.OO...............OOOO#....+$$...##.##....",
"###########.####.##.##.OO.OO......####..#####....$.....##.##....",
".................##.##.OO.OO......#OO#...........+..%%.##.##....",
".................##.##.OO.OO......#OO#..............%%.##.##....",
".................##.##.OO.OO......#OO#...........%%.%%.##.##....",
"OOOO@@o@@@@@@@@@@@o@oo@.@@@@@@oooooooooo@@@ooooo.%%.%%.##.##....",
"OOOO@@@@@@@@@@@@@@@@@@@.@@@@@ooooooooooo@@@@oooo.%%.%%.##....OO.",
"OOO@@@@@@@@@@@@@@@@@@@@.@@@o@o@@oooooooo@@@@@ooo.%%.%%.##.......",
"O@@@@@@@@@@@@@@@@@@@@@@.@@@@@o@@oooooooo@@@@@@oo.%%.%%....OO....",
".@@@@@@@@@@@@@@@@@@@@@@O@@@@@ooooooooo@o@@@@@@@o.%%.%%..........",
".@@@@@@@@@@@@@@@@@@@@@@O@@@@@@oooo@@oooo@@@@@@@@.%%....OO.......",
".@@@@@@@@@@@@@@@&&&@&@@O@@@@@@o@oo@@oooo@@@@@@@o.%%.............",
".@@@@@@@@@@@oo@@@@@@@@@O@@@@@ooooooooooo@@@@@@@@....OO..........",
"O@@@@@@@@@@@@@@@@@@@@@@.........oooooooooooooooo%Xoooooo%XXXXooo",
"O@@@@@&&@@@&@&&@@&&@@@@.########oooooooooooooooo%X%%Xooo.Xoooooo",
"O@@@@@@@@@@@@@@@@@@@@@@.OOOOOOOOoooooooooooooooo%X%%Xooooooooooo",
"O@@@@@@@@@@@@@@@@@@@@@@.O......Ooooooo*ooooooooo%X%%Xooooooooooo",
".@@@@@@@@@@@@@@@@@@@@@@O#.$..$.#o*oo*o*ooooooooo%X%%Xooooooooooo",
".@@@@@@@@@@@@@@@@@@@@@@O..$$$$..oooo*ooooooooooo%X%%Xooooooooooo",
".@@@@@@@@@@@@@@@@@@@@@@O..+..+..oooooooooooooooo%X%%Xooooooooooo",
".@o@oo@@@o@oo@@@@@@@oo@O..$$$$..%%%%%%%%%Xoooooo%X%%Xooooooooooo",
"%%%%%%%%O......OOOOOOOOO#.+..+.%                                ",
".*...*..O.$..$.O#%%%%%%##.$$$$.%                                ",
"o*o*o*ooO.$$$$.O#%####%##.+..+.%                                ",
"ooo*ooooO.+..+.O#%####%#%%%%====                                ",
"oooooooo..$$$$..#%####%#====%%%%                                ",
"oooooooo........#%####%#====%%%%                                ",
"oooooooo..++++..#%%%%%%#====%%%%                                ",
"oooooooo........#OOOOOO#====%%%%                                "
};
