/* XPM */
static char *_bff2b69ee0d44d2db19c94e770c16ecJhugUxkf82tx8Hxo[] = {
/* columns rows colors chars-per-pixel */
"8 8 7 1 ",
"  c black",
". c #0B0B0B",
"X c #1B1B1B",
"o c gray19",
"O c #403F3F",
"+ c gray33",
"@ c #606060",
/* pixels */
"X ..ooO.",
".X .....",
"+.X @.OO",
"..X ....",
"++@X oO.",
"....X...",
"+.++X.OO",
".....X.."
};
